<svg width="1920" height="886" viewBox="0 0 1920 886" fill="none" xmlns="http://www.w3.org/2000/svg">
<g clip-path="url(#clip0_14_10)">
<rect width="1920" height="886" fill="black"/>
<path d="M0 0H1920V972.161C1920 972.161 1842.33 1043.86 1790 1046.55C1691.72 1051.62 1652.36 936.604 1554 935.594C1453.44 934.562 1412.56 1046.03 1312 1046.55C1203.07 1047.12 1160.66 883.056 1052 892.723C959.817 900.926 930.221 1039.05 838 1046.55C772.806 1051.86 731.054 975.932 666 968.378C545.54 954.391 486.875 1052.58 366 1046.55C277.647 1042.15 205.124 942.846 117 951.986C60.2594 957.871 0 1046.55 0 1046.55V0Z" fill="url(#paint0_linear_14_10)"/>
<g filter="url(#filter0_d_14_10)">
<path d="M1920 -2H0V183.997C0 183.997 77.6654 279.276 130 282.861C228.281 289.59 267.641 136.745 366 135.403C466.558 134.032 507.44 282.164 608 282.861C716.927 283.616 749.842 165.088 858.5 177.936C950.683 188.835 840 475.561 1022 408.534C1204 341.508 1188.95 473.87 1254 463.831C1374.46 445.243 1433.12 575.733 1554 567.721C1642.35 561.865 1714.88 429.901 1803 442.048C1859.74 449.868 1920 567.721 1920 567.721V-2Z" fill="#392C9E"/>
</g>
<g opacity="0.15" filter="url(#filter1_f_14_10)">
<path d="M1680 448.998C1680 611.064 1357.65 742.444 960 742.444C562.355 742.444 240 611.064 240 448.998C240 286.932 562.355 155.552 960 155.552C1357.65 155.552 1680 286.932 1680 448.998Z" fill="#25E4FE"/>
</g>
</g>
<defs>
<filter id="filter0_d_14_10" x="-70" y="-68" width="2060" height="710.076" filterUnits="userSpaceOnUse" color-interpolation-filters="sRGB">
<feFlood flood-opacity="0" result="BackgroundImageFix"/>
<feColorMatrix in="SourceAlpha" type="matrix" values="0 0 0 0 0 0 0 0 0 0 0 0 0 0 0 0 0 0 127 0" result="hardAlpha"/>
<feOffset dy="4"/>
<feGaussianBlur stdDeviation="35"/>
<feColorMatrix type="matrix" values="0 0 0 0 0.227451 0 0 0 0 0.215686 0 0 0 0 0.607843 0 0 0 1 0"/>
<feBlend mode="normal" in2="BackgroundImageFix" result="effect1_dropShadow_14_10"/>
<feBlend mode="normal" in="SourceGraphic" in2="effect1_dropShadow_14_10" result="shape"/>
</filter>
<filter id="filter1_f_14_10" x="-10" y="-94.4482" width="1940" height="1086.89" filterUnits="userSpaceOnUse" color-interpolation-filters="sRGB">
<feFlood flood-opacity="0" result="BackgroundImageFix"/>
<feBlend mode="normal" in="SourceGraphic" in2="BackgroundImageFix" result="shape"/>
<feGaussianBlur stdDeviation="125" result="effect1_foregroundBlur_14_10"/>
</filter>
<linearGradient id="paint0_linear_14_10" x1="0" y1="0" x2="1902.72" y2="1077.55" gradientUnits="userSpaceOnUse">
<stop stop-color="#2A2895"/>
<stop offset="1" stop-color="#793BC8"/>
</linearGradient>
<clipPath id="clip0_14_10">
<rect width="1920" height="886" fill="white"/>
</clipPath>
</defs>
</svg>
